# xmcd
#
# Track frame offsets:
#   150
#   25425
#   45505
#   62150
#   82670
#   95953
#   110565
#   130088
#   148531
#   166741
#
# Disc length: 2470 seconds
#
# Revision: 2
# Processed by: cddbd v1.5.2PL0 Copyright (c) Steve Scherf et al.
# Submitted via: FreeDB MUI.FreeDBGui 13.2
#
DISCID=8009a40a
DTITLE=John Lee Hooker - The Healer
DYEAR=1989
DGENRE=Blues
TTITLE0=The Healer
TTITLE1=I'm in the Mood
TTITLE2=Baby Lee
TTITLE3=Cuttin' Out
TTITLE4=Think Twice Before You Go
TTITLE5=Sally Mae
TTITLE6=That's Allright
TTITLE7=Rockin' Chair
TTITLE8=My Dream
TTITLE9=No Substitute
EXTD=
EXTT0=John Lee Hooker, Carlos Santana and The Santana Band
EXTT1=John Lee Hooker and Bonnie Raitt
EXTT2=John Lee Hooker and Robert Cray
EXTT3=John Lee Hooker and Canned Heat
EXTT4=John Lee Hooker and Los Lobos
EXTT5=John Lee Hooker and George Thorogood
EXTT6=John Lee Hooker and Charlie Musselwhite
EXTT7=
EXTT8=
EXTT9=
PLAYORDER=
